<svg xmlns="http://www.w3.org/2000/svg" width="512" height="512" viewBox="0 0 512 512">
  <defs>
    <linearGradient id="bg" x1="0" y1="0" x2="1" y2="1">
      <stop stop-color="#101b3d"/>
      <stop offset=".55" stop-color="#263d82"/>
      <stop offset="1" stop-color="#9c5bd3"/>
    </linearGradient>
    <linearGradient id="paper" x1="0" y1="0" x2="0.9" y2="1">
      <stop stop-color="#fff"/>
      <stop offset="1" stop-color="#dbe5ff"/>
    </linearGradient>
  </defs>
  <rect width="512" height="512" fill="url(#bg)"/>
  <circle cx="416" cy="82" r="86" fill="#f6b73c" opacity=".9"/>
  <path d="M186 112h120l65 65v220H186c-20 0-36-16-36-36V148c0-20 16-36 36-36Z" fill="url(#paper)"/>
  <path d="M306 112v56c0 12 10 22 22 22h43" fill="#b8c8f5"/>
  <path d="M205 278h142M205 320h142M205 362h93" fill="none" stroke="#16275c" stroke-linecap="round" stroke-width="20"/>
  <path d="M207 202h61" fill="none" stroke="#e36b8d" stroke-linecap="round" stroke-width="20"/>
  <path d="m354 359 19 19 39-46" fill="none" stroke="#16a889" stroke-linecap="round" stroke-linejoin="round" stroke-width="21"/>
</svg>